<svg width="39" height="36" viewBox="0 0 39 36" fill="none" xmlns="http://www.w3.org/2000/svg">
<path d="M18.385 11.4907L19.91 13.8495L21.439 11.4933C23.8183 7.82655 26.6649 5.06406 29.3 3.51816C32.017 1.92417 34.0527 1.85182 35.2523 2.56167C36.4774 3.28656 37.3776 5.16532 37.1448 8.43272C36.9195 11.5954 35.6312 15.5385 33.2446 19.4439C31.1814 22.8202 27.6167 26.5162 24.4683 29.4315C22.9114 30.8732 21.4883 32.0949 20.4551 32.9556C20.2625 33.116 20.0836 33.2638 19.9201 33.398C19.7485 33.2556 19.5599 33.0981 19.3563 32.9266C18.3096 32.0453 16.87 30.7982 15.3003 29.337C12.1235 26.38 8.55254 22.6729 6.54976 19.3955C4.16321 15.4901 2.87485 11.5471 2.64954 8.38435C2.41677 5.11695 3.317 3.23819 4.54203 2.51329C5.74422 1.80191 7.78632 1.87636 10.5108 3.4794C13.1525 5.0338 16.005 7.80928 18.385 11.4907Z" fill="#E21D24" stroke="black" stroke-width="3.63863"/>
</svg>
