<svg width="263" height="75" viewBox="0 0 263 75" fill="none" xmlns="http://www.w3.org/2000/svg">
<path d="M29.6161 14.9114L55.2644 59.3356H3.96781L29.6161 14.9114Z" fill="#E21D24"/>
<path d="M29.6161 14.9114L55.2644 59.3356H3.96781L29.6161 14.9114Z" fill="#E21D24"/>
<path d="M55.7185 44.0256L74.4113 11.6486H37.0256L55.7185 44.0256Z" fill="black"/>
<path d="M106.021 32.8177C105.889 31.5771 105.33 30.6112 104.345 29.9199C103.37 29.2286 102.101 28.883 100.538 28.883C99.4399 28.883 98.4977 29.0487 97.7117 29.3802C96.9257 29.7116 96.3244 30.1614 95.9077 30.7296C95.4911 31.2978 95.278 31.9464 95.2685 32.6756C95.2685 33.2817 95.4059 33.8072 95.6805 34.2523C95.9646 34.6974 96.3481 35.0762 96.831 35.3887C97.314 35.6917 97.849 35.9474 98.4362 36.1557C99.0233 36.3641 99.6151 36.5392 100.212 36.6813L102.939 37.3631C104.037 37.6188 105.093 37.9644 106.107 38.4C107.129 38.8356 108.043 39.3849 108.848 40.0478C109.662 40.7106 110.306 41.5108 110.78 42.4483C111.253 43.3858 111.49 44.4843 111.49 45.7438C111.49 47.4483 111.055 48.9493 110.183 50.2466C109.312 51.5345 108.053 52.543 106.405 53.2722C104.767 53.9919 102.783 54.3517 100.453 54.3517C98.1899 54.3517 96.225 54.0014 94.5583 53.3006C92.9011 52.5999 91.6038 51.5771 90.6663 50.2324C89.7382 48.8877 89.2363 47.2495 89.1606 45.3177H94.3452C94.421 46.3309 94.7335 47.1737 95.2827 47.8461C95.832 48.5184 96.547 49.0203 97.4276 49.3517C98.3178 49.6832 99.3121 49.8489 100.411 49.8489C101.556 49.8489 102.56 49.6785 103.422 49.3375C104.293 48.9872 104.975 48.5042 105.467 47.8887C105.96 47.2637 106.211 46.5345 106.22 45.7012C106.211 44.9436 105.988 44.3186 105.553 43.8262C105.117 43.3243 104.506 42.9076 103.72 42.5762C102.944 42.2353 102.035 41.9322 100.993 41.6671L97.6833 40.8148C95.2875 40.1993 93.3935 39.2665 92.0015 38.0165C90.6189 36.7571 89.9276 35.0856 89.9276 33.0023C89.9276 31.2883 90.3916 29.7874 91.3197 28.4995C92.2572 27.2116 93.5309 26.2125 95.1407 25.5023C96.7506 24.7826 98.5735 24.4228 100.609 24.4228C102.674 24.4228 104.483 24.7826 106.036 25.5023C107.598 26.2125 108.824 27.2021 109.715 28.4711C110.605 29.7305 111.064 31.1794 111.092 32.8177H106.021ZM120.649 47.0648L120.634 40.8574H121.458L129.299 32.0932H135.308L125.663 42.8319H124.597L120.649 47.0648ZM115.961 53.9114V24.8205H121.103V53.9114H115.961ZM129.654 53.9114L122.552 43.9824L126.018 40.3603L135.805 53.9114H129.654ZM138.734 53.9114V32.0932H143.876V53.9114H138.734ZM141.32 28.9966C140.505 28.9966 139.805 28.7267 139.217 28.187C138.63 27.6377 138.337 26.9796 138.337 26.2125C138.337 25.436 138.63 24.7779 139.217 24.2381C139.805 23.6889 140.505 23.4142 141.32 23.4142C142.144 23.4142 142.844 23.6889 143.422 24.2381C144.009 24.7779 144.303 25.436 144.303 26.2125C144.303 26.9796 144.009 27.6377 143.422 28.187C142.844 28.7267 142.144 28.9966 141.32 28.9966ZM154.306 24.8205V53.9114H149.164V24.8205H154.306ZM164.736 24.8205V53.9114H159.594V24.8205H164.736ZM170.251 53.9114V24.8205H181.387C183.489 24.8205 185.237 25.1519 186.629 25.8148C188.03 26.4682 189.077 27.3631 189.768 28.4995C190.469 29.6358 190.819 30.9237 190.819 32.3631C190.819 33.5468 190.592 34.5601 190.137 35.4029C189.683 36.2362 189.072 36.9133 188.305 37.4341C187.538 37.955 186.681 38.329 185.734 38.5563V38.8404C186.766 38.8972 187.756 39.2144 188.702 39.7921C189.659 40.3603 190.44 41.1652 191.046 42.2069C191.652 43.2485 191.955 44.508 191.955 45.9853C191.955 47.491 191.591 48.8451 190.862 50.0478C190.132 51.241 189.034 52.1832 187.566 52.8745C186.098 53.5658 184.252 53.9114 182.026 53.9114H170.251ZM175.521 49.508H181.188C183.101 49.508 184.479 49.1434 185.322 48.4142C186.174 47.6756 186.6 46.7286 186.6 45.5733C186.6 44.7116 186.387 43.9351 185.961 43.2438C185.535 42.543 184.929 41.9938 184.143 41.5961C183.357 41.1889 182.419 40.9853 181.33 40.9853H175.521V49.508ZM175.521 37.1927H180.734C181.643 37.1927 182.462 37.0269 183.191 36.6955C183.92 36.3546 184.493 35.8764 184.91 35.2608C185.336 34.6358 185.549 33.8972 185.549 33.0449C185.549 31.918 185.151 30.99 184.356 30.2608C183.57 29.5317 182.4 29.1671 180.847 29.1671H175.521V37.1927ZM202.591 54.3517C201.208 54.3517 199.963 54.1055 198.855 53.6131C197.757 53.1112 196.885 52.3726 196.242 51.3972C195.607 50.4218 195.29 49.2192 195.29 47.7892C195.29 46.5582 195.517 45.5402 195.972 44.7353C196.426 43.9303 197.046 43.2864 197.832 42.8035C198.618 42.3205 199.504 41.9559 200.489 41.7097C201.483 41.454 202.51 41.2694 203.571 41.1557C204.85 41.0231 205.886 40.9048 206.682 40.8006C207.477 40.687 208.055 40.5165 208.415 40.2892C208.784 40.0525 208.969 39.6879 208.969 39.1955V39.1103C208.969 38.0402 208.652 37.2116 208.017 36.6245C207.383 36.0374 206.469 35.7438 205.276 35.7438C204.016 35.7438 203.017 36.0184 202.278 36.5677C201.549 37.1169 201.057 37.7656 200.801 38.5137L196 37.8319C196.379 36.5061 197.004 35.3981 197.875 34.508C198.746 33.6084 199.812 32.936 201.071 32.491C202.331 32.0364 203.723 31.8091 205.247 31.8091C206.298 31.8091 207.345 31.9322 208.386 32.1785C209.428 32.4247 210.38 32.8319 211.242 33.4C212.103 33.9588 212.795 34.7211 213.315 35.687C213.846 36.6529 214.111 37.8603 214.111 39.3091V53.9114H209.168V50.9142H208.997C208.685 51.5203 208.244 52.0885 207.676 52.6188C207.118 53.1396 206.412 53.561 205.56 53.883C204.717 54.1955 203.727 54.3517 202.591 54.3517ZM203.926 50.5733C204.958 50.5733 205.853 50.3697 206.611 49.9625C207.368 49.5459 207.951 48.9966 208.358 48.3148C208.775 47.633 208.983 46.8896 208.983 46.0847V43.5137C208.822 43.6463 208.547 43.7694 208.159 43.883C207.78 43.9966 207.354 44.0961 206.881 44.1813C206.407 44.2665 205.939 44.3423 205.475 44.4086C205.01 44.4749 204.608 44.5317 204.267 44.579C203.5 44.6832 202.814 44.8536 202.207 45.0904C201.601 45.3271 201.123 45.6586 200.773 46.0847C200.422 46.5014 200.247 47.0411 200.247 47.704C200.247 48.651 200.593 49.366 201.284 49.8489C201.975 50.3319 202.856 50.5733 203.926 50.5733ZM236.526 37.8603L231.838 38.3716C231.706 37.8981 231.474 37.4531 231.142 37.0364C230.82 36.6197 230.385 36.2836 229.835 36.0279C229.286 35.7722 228.614 35.6444 227.818 35.6444C226.748 35.6444 225.849 35.8764 225.119 36.3404C224.4 36.8044 224.045 37.4057 224.054 38.1444C224.045 38.7788 224.277 39.2949 224.75 39.6927C225.233 40.0904 226.028 40.4171 227.136 40.6728L230.858 41.4682C232.922 41.9133 234.457 42.6188 235.46 43.5847C236.474 44.5506 236.985 45.8148 236.994 47.3773C236.985 48.7504 236.582 49.9625 235.787 51.0137C235.001 52.0553 233.907 52.8697 232.506 53.4569C231.104 54.044 229.494 54.3375 227.676 54.3375C225.006 54.3375 222.856 53.7788 221.227 52.6614C219.599 51.5345 218.628 49.9673 218.315 47.9597L223.33 47.4767C223.557 48.4616 224.04 49.205 224.778 49.7069C225.517 50.2088 226.478 50.4597 227.662 50.4597C228.884 50.4597 229.864 50.2088 230.602 49.7069C231.35 49.205 231.725 48.5847 231.725 47.8461C231.725 47.2211 231.483 46.705 231 46.2978C230.527 45.8906 229.788 45.5781 228.784 45.3603L225.063 44.579C222.97 44.1434 221.421 43.4095 220.418 42.3773C219.414 41.3356 218.917 40.0194 218.926 38.4285C218.917 37.0838 219.281 35.919 220.02 34.9341C220.768 33.9398 221.805 33.1728 223.131 32.633C224.466 32.0838 226.005 31.8091 227.747 31.8091C230.304 31.8091 232.316 32.3536 233.784 33.4427C235.261 34.5317 236.175 36.0042 236.526 37.8603ZM250.894 54.3375C248.706 54.3375 246.817 53.883 245.226 52.9739C243.644 52.0553 242.428 50.758 241.575 49.0819C240.723 47.3963 240.297 45.4124 240.297 43.1302C240.297 40.8858 240.723 38.9161 241.575 37.2211C242.437 35.5165 243.64 34.1908 245.183 33.2438C246.727 32.2874 248.54 31.8091 250.624 31.8091C251.968 31.8091 253.237 32.0269 254.43 32.4625C255.633 32.8887 256.694 33.5516 257.612 34.4512C258.54 35.3508 259.269 36.4966 259.8 37.8887C260.33 39.2713 260.595 40.919 260.595 42.8319V44.4086H242.712V40.9427H255.666C255.657 39.9578 255.444 39.0819 255.027 38.3148C254.61 37.5383 254.028 36.9275 253.28 36.4824C252.541 36.0374 251.68 35.8148 250.695 35.8148C249.644 35.8148 248.72 36.0705 247.925 36.5819C247.129 37.0838 246.509 37.7466 246.064 38.5705C245.628 39.3849 245.406 40.2798 245.396 41.2552V44.2807C245.396 45.5497 245.628 46.6387 246.092 47.5478C246.556 48.4474 247.205 49.1387 248.038 49.6216C248.872 50.0951 249.847 50.3319 250.965 50.3319C251.713 50.3319 252.39 50.2277 252.996 50.0194C253.602 49.8016 254.127 49.4843 254.573 49.0677C255.018 48.651 255.354 48.1349 255.581 47.5194L260.382 48.0591C260.079 49.3281 259.501 50.436 258.649 51.383C257.806 52.3205 256.727 53.0497 255.411 53.5705C254.094 54.0819 252.589 54.3375 250.894 54.3375Z" fill="black"/>
</svg>